# xmcd
#
# Track frame offsets:
#	150
#	19037
#	40219
#	56651
#	72616
#	85067
#	108618
#	130836
#	155248
#	173390
#	187875
#	204690
#	216929
#	233442
#	252175
#	266598
#	283881
#	299914
#
# Disc length: 4241 seconds
#
# Revision: 1
# Processed by: cddbd v1.5.2PL0 Copyright (c) Steve Scherf et al.
# Submitted via: EasyCDDAExtractor 12.0.1.1
#
DISCID=14108f12
DTITLE=Various Artist - Urban Weekend - CD2 - The Club
DYEAR=2006
DGENRE=R&B
TTITLE0=Black Eyed Peas - My Humps
TTITLE1=Christina Milian Ft. Young Jeezy - Say I
TTITLE2=Fatman Scoop Ft. The Crooklyn Clan - Be Faithful
TTITLE3=David Banner - Play
TTITLE4=Julez Santana - There It Go (The Whistle Song)
TTITLE5=Lil' Jon and The EastSide Boyz - Get Low
TTITLE6=Ludacris Ft. Shawnna - Stand Up
TTITLE7=N.O.R.E. - Nothin'
TTITLE8=Amerie - 1 Thing
TTITLE9=Sway - Baby Father
TTITLE10=Wiley - Gangsterz
TTITLE11=Kray Twinz Ft. Twista, Lethal B and Gappy Ranks - What We Do
TTITLE12=Terror Squad - Lean Back
TTITLE13=J-Kwon - Tipsy
TTITLE14=Kanye West - Diamonds From Sierra Leone
TTITLE15=Tony Yayo Ft. 50 Cent - So Seductive
TTITLE16=Lloyd Banks - On Fire
TTITLE17=Rihanna - SOS
EXTD=
EXTT0=
EXTT1=
EXTT2=
EXTT3=
EXTT4=
EXTT5=
EXTT6=
EXTT7=
EXTT8=
EXTT9=
EXTT10=
EXTT11=
EXTT12=
EXTT13=
EXTT14=
EXTT15=
EXTT16=
EXTT17=
PLAYORDER=
